<svg height="511pt" viewBox="1 -16 511.999 511" width="511pt" xmlns="http://www.w3.org/2000/svg"><path d="m443.835938 472.609375h-375.671876c-22.308593 0-40.390624-18.085937-40.390624-40.394531v-271.648438h456.457031v271.648438c0 22.308594-18.085938 40.394531-40.394531 40.394531zm0 0" fill="#636363"/><path d="m462.011719 160.566406h-434.242188v116.691406c2.757813.976563 5.601563 1.769532 8.539063 2.347657l185.519531 34.375h68.34375l171.839844-31.839844v150.074219c0 22.3125-18.085938 40.394531-40.394531 40.394531h22.21875c22.308593 0 40.390624-18.082031 40.390624-40.394531v-271.648438zm0 0" fill="#494949"/><path d="m288.316406 293.78125v44.433594h-64.632812v-44.433594zm0 0" fill="#c9d2e3"/><path d="m223.683594 293.78125h64.632812v20.199219h-64.632812zm0 0" fill="#adbbd5"/><path d="m256 293.78125h32.316406l183.488282-33.996094c18.953124-3.71875 32.621093-20.328125 32.621093-39.640625v-66.652343c0-22.308594-18.085937-40.394532-40.394531-40.394532h-416.0625c-22.308594 0-40.394531 18.085938-40.394531 40.394532v66.652343c0 19.3125 13.667969 35.921875 32.621093 39.640625l183.488282 33.996094zm0 0" fill="#636363"/><path d="m464.03125 113.097656h-24.234375c22.308594 0 40.394531 18.085938 40.394531 40.394532v76.832031c0 12.027343-5.304687 23.007812-13.886718 30.476562l5.5-1.015625c18.953124-3.71875 32.621093-20.328125 32.621093-39.640625v-66.652343c0-22.308594-18.085937-40.394532-40.394531-40.394532zm0 0" fill="#494949"/><path d="m256 389.71875 32.316406-10.097656v-41.40625h-64.632812v41.40625zm0 0" fill="#ffd664"/><path d="m272.15625 338.214844v46.453125l16.160156-5.046875v-41.40625s-8.078125 0-16.160156 0zm0 0" fill="#f9c646"/><path d="m134.816406 82.804688h60.59375v30.292968h-60.59375zm0 0" fill="#ffd664"/><path d="m182.28125 82.804688v8.078124c0 5.578126-4.523438 10.097657-10.101562 10.097657h-37.363282v12.117187h60.589844v-30.292968zm0 0" fill="#f9c646"/><path d="m316.59375 82.804688h60.589844v30.292968h-60.589844zm0 0" fill="#ffd664"/><path d="m364.054688 82.804688v8.078124c0 5.578126-4.519532 10.097657-10.097657 10.097657h-37.367187v12.117187h60.59375v-30.292968zm0 0" fill="#f9c646"/><path d="m363.046875 82.804688h-32.316406v-18.179688c0-13.363281-10.875-24.238281-24.238281-24.238281h-100.984376c-13.363281 0-24.238281 10.875-24.238281 24.238281v18.179688h-32.316406v-18.179688c0-31.183594 25.371094-56.550781 56.554687-56.550781h100.984376c31.183593 0 56.550781 25.367187 56.550781 56.550781v18.179688zm0 0" fill="#c9d2e3"/><path d="m167.132812 64.625v18.179688h14.136719v-18.179688c0-13.363281 10.875-24.238281 24.238281-24.238281h-14.140624c-13.363282 0-24.234376 10.875-24.234376 24.238281zm0 0" fill="#adbbd5"/><path d="m306.492188 8.074219h-14.136719c31.183593 0 56.550781 25.367187 56.550781 56.550781v18.179688h14.140625v-18.179688c0-31.183594-25.371094-56.550781-56.554687-56.550781zm0 0" fill="#adbbd5"/><path d="m464.03125 105.523438h-79.273438v-22.71875c0-4.183594-3.390624-7.574219-7.574218-7.574219h-6.5625v-10.605469c0-35.359375-28.769532-64.125-64.128906-64.125h-100.984376c-35.359374 0-64.125 28.765625-64.125 64.125v10.605469h-6.566406c-4.183594 0-7.574218 3.390625-7.574218 7.574219v22.722656h-28.90625c-4.183594 0-7.574219 3.390625-7.574219 7.570312 0 4.183594 3.390625 7.574219 7.574219 7.574219h365.695312c18.097656 0 32.820312 14.726563 32.820312 32.824219v66.648437c0 15.652344-11.148437 29.195313-26.425781 32.195313l-182.808593 33.871094h-63.238282l-182.726562-33.859376c-15.355469-3.011718-26.503906-16.554687-26.503906-32.207031v-66.652343c0-18.097657 14.722656-32.820313 32.820312-32.820313h15.210938c4.183593 0 7.574218-3.390625 7.574218-7.574219s-3.390625-7.574218-7.574218-7.574218h-15.210938c-26.449219 0-47.96875 21.519531-47.96875 47.96875v66.652343c0 15.882813 7.859375 30.273438 20.195312 39.070313v173c0 26.449218 21.519532 47.96875 47.96875 47.96875h297.40625c4.183594 0 7.574219-3.390625 7.574219-7.574219s-3.390625-7.574219-7.574219-7.574219h-297.40625c-18.097656 0-32.820312-14.722656-32.820312-32.820312v-165.808594c1.140625.3125 2.296875.59375 3.472656.824219l177.292969 32.851562v79.539063c0 3.3125 2.152344 6.238281 5.316406 7.226562l32.316407 10.101563c.734374.226562 1.496093.34375 2.257812.34375s1.523438-.117188 2.257812-.34375l32.316407-10.101563c3.164062-.988281 5.316406-3.914062 5.316406-7.226562v-79.539063l177.371094-32.863281c1.148437-.226562 2.277343-.503906 3.394531-.804688v165.800782c0 18.101562-14.722656 32.820312-32.820312 32.820312h-42.835938c-4.183594 0-7.574219 3.390625-7.574219 7.574219s3.390625 7.574219 7.574219 7.574219h42.835938c26.449218 0 47.964843-21.519532 47.964843-47.96875v-172.988282c12.328125-8.789062 20.199219-23.191406 20.199219-39.082031v-66.652343c0-26.449219-21.519531-47.96875-47.96875-47.96875zm-307.503906-40.898438c0-27.007812 21.972656-48.976562 48.980468-48.976562h100.984376c27.007812 0 48.980468 21.96875 48.980468 48.976562v10.605469h-17.167968v-10.605469c0-17.539062-14.273438-31.808594-31.8125-31.808594h-16.789063c-4.183594 0-7.574219 3.390625-7.574219 7.570313 0 4.183593 3.390625 7.574219 7.574219 7.574219h16.789063c9.1875 0 16.664062 7.476562 16.664062 16.664062v10.605469h-6.566406c-4.183594 0-7.574219 3.390625-7.574219 7.574219v22.722656h-106.035156v-22.722656c0-4.183594-3.390625-7.574219-7.574219-7.574219h-6.5625v-10.605469c0-9.1875 7.476562-16.664062 16.664062-16.664062h48.976563c4.183594 0 7.574219-3.390626 7.574219-7.574219 0-4.179688-3.390625-7.570313-7.574219-7.570313h-48.976563c-17.539062 0-31.8125 14.269532-31.8125 31.808594v10.605469h-17.167968zm-14.136719 40.898438v-15.148438h45.445313v15.148438zm181.773437 0v-15.148438h45.445313v15.148438zm-92.90625 195.832031h49.484376v29.285156h-49.484376zm49.484376 72.695312-24.742188 7.734375-24.742188-7.734375v-28.261719h49.484376zm0 0"/></svg>